<svg xmlns="http://www.w3.org/2000/svg" viewBox="0 0 480 410" fill="none"><title>Ironwood Garrison playable layout</title><desc>Original map plan from the game layout. A and B are objective sites; triangles mark player entry points.</desc><defs><pattern id="grid" width="20" height="20" patternUnits="userSpaceOnUse"><path d="M20 0H0V20" stroke="#a6aa9b" stroke-opacity=".07" stroke-width=".6"/></pattern><pattern id="hatch" width="5" height="5" patternUnits="userSpaceOnUse" patternTransform="rotate(45)"><path d="M0 0v5" stroke="#c1ba9f" stroke-opacity=".18" stroke-width="1"/></pattern></defs><rect width="480" height="410" fill="url(#grid)"/><g transform="translate(240 201) rotate(-12)"><rect x="-126" y="-157.5" width="252" height="315" fill="#737d73" fill-opacity=".18" stroke="#8f9a85" stroke-width="1.2"/><rect x="-28.875" y="26.25" width="5.25" height="94.5" fill="#54624f" stroke="#9ba78e" stroke-width=".65"/><rect x="65.625" y="-36.75" width="5.25" height="105" fill="#54624f" stroke="#9ba78e" stroke-width=".65"/><rect x="-110.25" y="23.625" width="31.5" height="5.25" fill="#54624f" stroke="#9ba78e" stroke-width=".65"/><rect x="-63" y="23.625" width="21" height="5.25" fill="#54624f" stroke="#9ba78e" stroke-width=".65"/><rect x="-107.625" y="-44.625" width="5.25" height="68.25" fill="#54624f" stroke="#9ba78e" stroke-width=".65"/><rect x="-36.75" y="-34.125" width="73.5" height="5.25" fill="#54624f" stroke="#9ba78e" stroke-width=".65"/><rect x="-49.875" y="-110.25" width="5.25" height="63" fill="#54624f" stroke="#9ba78e" stroke-width=".65"/><rect x="49.875" y="-152.25" width="5.25" height="63" fill="#54624f" stroke="#9ba78e" stroke-width=".65"/><rect x="57.75" y="-55.125" width="63" height="5.25" fill="#54624f" stroke="#9ba78e" stroke-width=".65"/><rect x="-89.25" y="-28.875" width="21" height="47.25" fill="url(#hatch)" stroke="#79836e" stroke-width=".65"/><rect x="11.55" y="10.5" width="18.900000000000002" height="42" fill="url(#hatch)" stroke="#79836e" stroke-width=".65"/><rect x="-97.125" y="-102.375" width="15.75" height="15.75" fill="url(#hatch)" stroke="#79836e" stroke-width=".65"/><rect x="78.75" y="-112.875" width="21" height="15.75" fill="url(#hatch)" stroke="#79836e" stroke-width=".65"/><rect x="81.375" y="76.125" width="15.75" height="26.25" fill="url(#hatch)" stroke="#79836e" stroke-width=".65"/><rect x="2.625" y="-102.375" width="15.75" height="15.75" fill="url(#hatch)" stroke="#79836e" stroke-width=".65"/><rect x="-63" y="49.875" width="10.5" height="15.75" fill="url(#hatch)" stroke="#79836e" stroke-width=".65"/><rect x="89.25" y="-17.849999999999998" width="10.5" height="4.2" fill="url(#hatch)" stroke="#79836e" stroke-width=".65"/><rect x="-99.225" y="42.525" width="9.450000000000001" height="9.450000000000001" fill="#69785b" stroke="#9ba78e" stroke-width=".65"/><rect x="37.275" y="63.525" width="9.450000000000001" height="9.450000000000001" fill="#69785b" stroke="#9ba78e" stroke-width=".65"/><rect x="84.525" y="-83.47500000000001" width="9.450000000000001" height="9.450000000000001" fill="#69785b" stroke="#9ba78e" stroke-width=".65"/><rect x="-20.474999999999998" y="-130.725" width="9.450000000000001" height="9.450000000000001" fill="#69785b" stroke="#9ba78e" stroke-width=".65"/><circle cx="-84" cy="-99.75" r="23.625" fill="#b3aa7a" fill-opacity=".06" stroke="#c4b596" stroke-width="1.1"/><text x="-84" y="-93.75" text-anchor="middle" fill="#ddd1ab" font-family="Arial,sans-serif" font-size="18" font-weight="700">A</text><circle cx="84" cy="-99.75" r="23.625" fill="#b3aa7a" fill-opacity=".06" stroke="#c4b596" stroke-width="1.1"/><text x="84" y="-93.75" text-anchor="middle" fill="#ddd1ab" font-family="Arial,sans-serif" font-size="18" font-weight="700">B</text><path d="M0 130.5l-5 10h10z" fill="#e0e1d0"/><path d="M-15.75 -130.5l-5 -10h10z" fill="#8a9a7a"/></g><path d="M48 35H32v16M432 35h16v16M48 375H32v-16M432 375h16v-16" stroke="#9ba48e" stroke-opacity=".7"/><text x="240" y="19" text-anchor="middle" fill="#929d8b" font-family="monospace" font-size="8" letter-spacing="2">SECTOR 03 / IRONWOOD</text><text x="240" y="395" text-anchor="middle" fill="#929d8b" font-family="monospace" font-size="8" letter-spacing="1">SIGNAL RELAY / MAINTENANCE HANGAR</text></svg>
